HIERARCHY
ROOT hip
{
  OFFSET 0.00112043 5.09927 -9.65472
  CHANNELS 6 Xposition Yposition Zposition Zrotation Xrotation Yrotation
  JOINT abdomen
  {
    OFFSET 0 -1.186 -1.5018
    CHANNELS 3 Zrotation Xrotation Yrotation
    JOINT abdomen2
    {
      OFFSET 0 9.964 0.2134
      CHANNELS 3 Zrotation Xrotation Yrotation
      JOINT chest
      {
        OFFSET 0 13.134 -3.2573
        CHANNELS 3 Zrotation Xrotation Yrotation
        JOINT neck
        {
          OFFSET 0 20.686 -1.6905
          CHANNELS 3 Zrotation Xrotation Yrotation
          JOINT head
          {
            OFFSET 0 7.238 -0.1237
            CHANNELS 3 Zrotation Xrotation Yrotation
            End Site
            {
              OFFSET 0 0 0
            }
          }
        }
        JOINT lCollar
        {
          OFFSET 1.7069 20.075 5.0056
          CHANNELS 3 Zrotation Xrotation Yrotation
          JOINT lShldr
          {
            OFFSET 13.6458 -0.047 -4.849
            CHANNELS 3 Zrotation Xrotation Yrotation
            JOINT lForeArm
            {
              OFFSET 28.3255 -0.9759 2.2888
              CHANNELS 3 Zrotation Xrotation Yrotation
              JOINT lHand
              {
                OFFSET 22.1583 -0.53 10.8316
                CHANNELS 3 Zrotation Xrotation Yrotation
                JOINT lThumb1
                {
                  OFFSET 0.786 0.112 2.5817
                  CHANNELS 3 Zrotation Xrotation Yrotation
                  JOINT lThumb2
                  {
                    OFFSET 0.3601 -0.878 4.2331
                    CHANNELS 3 Zrotation Xrotation Yrotation
                    JOINT lThumb2_End
                    {
                      OFFSET 1.8127 -1.216 2.2227
                      CHANNELS 3 Zrotation Xrotation Yrotation
                      End Site
                      {
                        OFFSET 0.0181 -0.0122 0.0222
                      }
                    }
                  }
                }
                JOINT lCarpal1
                {
                  OFFSET 0.9571 1.114 1.7695
                  CHANNELS 3 Zrotation Xrotation Yrotation
                  JOINT lIndex1
                  {
                    OFFSET 4.1246 0.487 4.1451
                    CHANNELS 3 Zrotation Xrotation Yrotation
                    JOINT lIndex2
                    {
                      OFFSET 3.4052 -1.454 2.7682
                      CHANNELS 3 Zrotation Xrotation Yrotation
                      JOINT lIndex2_End
                      {
                        OFFSET 1.4531 -1.795 1.2713
                        CHANNELS 3 Zrotation Xrotation Yrotation
                        End Site
                        {
                          OFFSET 0.0145 -0.0179 0.0127
                        }
                      }
                    }
                  }
                  JOINT lMid1
                  {
                    OFFSET 5.6954 0.21 2.1184
                    CHANNELS 3 Zrotation Xrotation Yrotation
                    JOINT lMid2
                    {
                      OFFSET 3.9766 -1.54 2.3863
                      CHANNELS 3 Zrotation Xrotation Yrotation
                      JOINT lMid2_End
                      {
                        OFFSET 1.4042 -1.926 1.125
                        CHANNELS 3 Zrotation Xrotation Yrotation
                        End Site
                        {
                          OFFSET 0.014 -0.0193 0.0113
                        }
                      }
                    }
                  }
                }
                JOINT lCarpal2
                {
                  OFFSET 2.0956 0.66 -0.3894
                  CHANNELS 3 Zrotation Xrotation Yrotation
                  JOINT lRing1
                  {
                    OFFSET 5.0395 -0.09 2.4971
                    CHANNELS 3 Zrotation Xrotation Yrotation
                    JOINT lRing2
                    {
                      OFFSET 3.7921 -1.552 1.4806
                      CHANNELS 3 Zrotation Xrotation Yrotation
                      JOINT lRing2_End
                      {
                        OFFSET 1.4655 -1.808 0.9609
                        CHANNELS 3 Zrotation Xrotation Yrotation
                        End Site
                        {
                          OFFSET 0.0147 -0.0181 0.0096
                        }
                      }
                    }
                  }
                  JOINT lPinky1
                  {
                    OFFSET 4.9141 -1.269 0.3591
                    CHANNELS 3 Zrotation Xrotation Yrotation
                    JOINT lPinky2
                    {
                      OFFSET 3.1477 -1.685 0.8462
                      CHANNELS 3 Zrotation Xrotation Yrotation
                      JOINT lPinky2_End
                      {
                        OFFSET 0.8055 -1.585 0.7955
                        CHANNELS 3 Zrotation Xrotation Yrotation
                        End Site
                        {
                          OFFSET 0.0081 -0.0158 0.008
                        }
                      }
                    }
                  }
                }
              }
            }
          }
        }
        JOINT rCollar
        {
          OFFSET -1.7069 20.075 5.0056
          CHANNELS 3 Zrotation Xrotation Yrotation
          JOINT rShldr
          {
            OFFSET -13.6458 -0.047 -4.849
            CHANNELS 3 Zrotation Xrotation Yrotation
            JOINT rForeArm
            {
              OFFSET -28.3255 -0.9759 2.2888
              CHANNELS 3 Zrotation Xrotation Yrotation
              JOINT rHand
              {
                OFFSET -22.1583 -0.53 10.8316
                CHANNELS 3 Zrotation Xrotation Yrotation
                JOINT rThumb1
                {
                  OFFSET -0.786 0.112 2.5817
                  CHANNELS 3 Zrotation Xrotation Yrotation
                  JOINT rThumb2
                  {
                    OFFSET -0.3601 -0.878 4.2331
                    CHANNELS 3 Zrotation Xrotation Yrotation
                    JOINT rThumb2_End
                    {
                      OFFSET -1.8127 -1.216 2.2227
                      CHANNELS 3 Zrotation Xrotation Yrotation
                      End Site
                      {
                        OFFSET -0.0181 -0.0122 0.0222
                      }
                    }
                  }
                }
                JOINT rCarpal1
                {
                  OFFSET -0.9571 1.114 1.7695
                  CHANNELS 3 Zrotation Xrotation Yrotation
                  JOINT rIndex1
                  {
                    OFFSET -4.1246 0.487 4.1451
                    CHANNELS 3 Zrotation Xrotation Yrotation
                    JOINT rIndex2
                    {
                      OFFSET -3.4052 -1.454 2.7682
                      CHANNELS 3 Zrotation Xrotation Yrotation
                      JOINT rIndex2_End
                      {
                        OFFSET -1.4531 -1.795 1.2713
                        CHANNELS 3 Zrotation Xrotation Yrotation
                        End Site
                        {
                          OFFSET -0.0145 -0.018 0.0127
                        }
                      }
                    }
                  }
                  JOINT rMid1
                  {
                    OFFSET -5.6954 0.21 2.1184
                    CHANNELS 3 Zrotation Xrotation Yrotation
                    JOINT rMid2
                    {
                      OFFSET -3.9766 -1.54 2.3863
                      CHANNELS 3 Zrotation Xrotation Yrotation
                      JOINT rMid2_End
                      {
                        OFFSET -1.4042 -1.926 1.125
                        CHANNELS 3 Zrotation Xrotation Yrotation
                        End Site
                        {
                          OFFSET -0.014 -0.0193 0.0113
                        }
                      }
                    }
                  }
                }
                JOINT rCarpal2
                {
                  OFFSET -2.0956 0.66 -0.3894
                  CHANNELS 3 Zrotation Xrotation Yrotation
                  JOINT rRing1
                  {
                    OFFSET -5.0395 -0.09 2.4971
                    CHANNELS 3 Zrotation Xrotation Yrotation
                    JOINT rRing2
                    {
                      OFFSET -3.7921 -1.552 1.4806
                      CHANNELS 3 Zrotation Xrotation Yrotation
                      JOINT rRing2_End
                      {
                        OFFSET -1.4655 -1.808 0.9609
                        CHANNELS 3 Zrotation Xrotation Yrotation
                        End Site
                        {
                          OFFSET -0.0147 -0.0181 0.0096
                        }
                      }
                    }
                  }
                  JOINT rPinky1
                  {
                    OFFSET -4.9141 -1.269 0.3592
                    CHANNELS 3 Zrotation Xrotation Yrotation
                    JOINT rPinky2
                    {
                      OFFSET -3.1477 -1.685 0.8462
                      CHANNELS 3 Zrotation Xrotation Yrotation
                      JOINT rPinky2_End
                      {
                        OFFSET -0.8055 -1.585 0.7955
                        CHANNELS 3 Zrotation Xrotation Yrotation
                        End Site
                        {
                          OFFSET -0.0081 -0.0158 0.008
                        }
                      }
                    }
                  }
                }
              }
            }
          }
        }
      }
    }
  }
  JOINT lThigh
  {
    OFFSET 8.367 -8.2066 0.5982
    CHANNELS 3 Zrotation Xrotation Yrotation
    JOINT lShin
    {
      OFFSET 2.1923 -43.463 -0.4932
      CHANNELS 3 Zrotation Xrotation Yrotation
      JOINT lFoot
      {
        OFFSET 0.7333 -45.8593 -2.6451
        CHANNELS 3 Zrotation Xrotation Yrotation
        End Site
        {
          OFFSET 2.6618 -4.2699 12.3931
        }
      }
    }
  }
  JOINT rThigh
  {
    OFFSET -8.367 -8.2066 0.5982
    CHANNELS 3 Zrotation Xrotation Yrotation
    JOINT rShin
    {
      OFFSET -2.1923 -43.463 -0.4931
      CHANNELS 3 Zrotation Xrotation Yrotation
      JOINT rFoot
      {
        OFFSET -0.7333 -45.8593 -2.6451
        CHANNELS 3 Zrotation Xrotation Yrotation
        End Site
        {
          OFFSET -2.6618 -4.2699 12.3931
        }
      }
    }
  }
}
MOTION
Frames:	4
Frame Time:	0.0333333
0 91.7903 2.51682 0 0 -0 0 0 -0 0 0 -0 0 0 -0 0 0 -0.00430691 -0 0 7.76503e-019 0 0 -0.00430691 1.66051 0.0835086 5.75766 -0.0175111 0.895433 15.7816 -3.47873e-016 -1.98785e-016 -3.18055e-015 -2.98177e-016 -1.98785e-016 -3.18055e-015 -9.93923e-017 -1.98785e-016 -3.18055e-015 -9.93923e-017 -1.98785e-016 -3.18055e-015 -2.98177e-016 -1.98785e-016 -3.18055e-015 -4.96962e-017 -3.97569e-016 6.36111e-015 -2.98177e-016 -1.98785e-016 -3.18055e-015 -2.98177e-016 -1.98785e-016 -3.18055e-015 -4.96962e-017 -3.97569e-016 6.36111e-015 -2.98177e-016 -1.98785e-016 -3.18055e-015 -2.98177e-016 -1.98785e-016 -3.18055e-015 -2.98177e-016 -1.98785e-016 -3.18055e-015 -4.96962e-017 -3.97569e-016 6.36111e-015 -2.98177e-016 -1.98785e-016 -3.18055e-015 -2.98177e-016 -1.98785e-016 -3.18055e-015 -4.96962e-017 -3.97569e-016 6.36111e-015 -2.98177e-016 -1.98785e-016 -3.18055e-015 -2.98177e-016 -1.98785e-016 -3.18055e-015 0 0 -0.00430691 -1.4496 0.0636048 -5.0245 -1.74811 1.20616 -16.8394 -1.10348e-032 1.98785e-016 3.18055e-015 -4.96962e-016 3.97569e-016 -0 -4.96962e-016 1.98785e-016 -3.18055e-015 4.96962e-016 -3.97569e-016 -0 -3.97569e-016 3.97569e-016 -0 -8.94531e-016 1.98785e-016 -0 3.97569e-016 -3.97569e-016 -0 2.20695e-032 -3.97569e-016 3.18055e-015 -8.94531e-016 1.98785e-016 -0 3.97569e-016 -3.97569e-016 -0 2.20695e-032 -3.97569e-016 3.18055e-015 -3.97569e-016 3.97569e-016 -0 -8.94531e-016 1.98785e-016 -0 3.97569e-016 -3.97569e-016 -0 2.20695e-032 -3.97569e-016 3.18055e-015 -8.94531e-016 1.98785e-016 -0 3.97569e-016 -3.97569e-016 -0 2.20695e-032 -3.97569e-016 3.18055e-015 -4.66111 -0.998717 0.12318 0.00986924 1.54847 0.176523 4.65186 -0.572283 -0.254274 4.66111 -0.998765 -0.123176 -0.00986867 1.54869 -0.176537 -4.65186 -0.572453 0.25427 
42.1545 -2.05185 71.4338 0 78.9991 -0 -0.304426 0.671671 -0.21563 -0.606384 1.34445 -0.427732 -0.606384 1.34448 -0.427732 -0.00310838 1.99485 -44.0016 -0.0581442 -15.3423 -26.0165 -7.85111 0.498172 -5.59246 -31.4605 -46.0783 -1.98903 33.9812 -21.5483 -27.6485 -1.37342 -26.3065 -32.1868 -1.98785e-016 0 6.36111e-015 1.98785e-016 1.98785e-016 -6.36111e-015 -5.96354e-016 1.98785e-016 -6.36111e-015 -1.98785e-016 0 6.36111e-015 3.97569e-016 -2.38542e-015 -6.36111e-015 -5.96354e-016 3.97569e-016 6.36111e-015 -1.98785e-016 7.95139e-016 3.18055e-015 3.97569e-016 -2.38542e-015 -6.36111e-015 -5.96354e-016 3.97569e-016 6.36111e-015 -1.98785e-016 7.95139e-016 3.18055e-015 -1.98785e-016 0 6.36111e-015 3.97569e-016 -2.38542e-015 -6.36111e-015 -5.96354e-016 3.97569e-016 6.36111e-015 -1.98785e-016 7.95139e-016 3.18055e-015 3.97569e-016 -2.38542e-015 -6.36111e-015 -5.96354e-016 3.97569e-016 6.36111e-015 -1.98785e-016 7.95139e-016 3.18055e-015 49.9036 -10.6981 -9.81943 44.3222 -40.2095 15.2442 -34.0473 -23.1221 18.2659 2.85057 -7.12068 32.2806 -9.93923e-016 0 1.59028e-015 -7.95139e-016 1.59028e-015 3.18055e-015 -7.95139e-016 1.59028e-015 3.18055e-015 -5.96354e-016 1.59028e-015 1.59028e-015 -9.93923e-016 3.18055e-015 9.54166e-015 -3.97569e-016 0 3.18055e-015 -1.98785e-016 0 3.18055e-015 -9.93923e-016 3.18055e-015 9.54166e-015 -3.97569e-016 0 3.18055e-015 -1.98785e-016 0 3.18055e-015 -5.96354e-016 1.59028e-015 1.59028e-015 -9.93923e-016 3.18055e-015 9.54166e-015 -3.97569e-016 0 3.18055e-015 -1.98785e-016 0 3.18055e-015 -9.93923e-016 3.18055e-015 9.54166e-015 -3.97569e-016 0 3.18055e-015 -1.98785e-016 0 3.18055e-015 2.99184 10.3121 46.1383 -4.67955 -1.94783 21.6606 10.7243 46.9611 -7.95402 -5.04834 5.37087 -43.2449 6.57494 9.58431 -22.8919 -8.59223 51.3763 -0.321184 
42.158 -2.02702 71.4351 0 78.6659 -0 -0.323065 0.934002 -0.211871 -0.642803 1.86918 -0.418553 -0.642802 1.86916 -0.418553 -0.00302111 1.3844 -44.0016 -0.331171 -15.5309 -26.6507 -7.37955 1.47678 -5.68913 -31.4767 -46.0988 -2.40395 33.9757 -21.5424 -27.6355 -0.468351 -27.9274 -31.3284 -1.98785e-016 0 1.90833e-014 1.71215e-007 4.43911e-008 1.65133e-006 -3.03156e-007 3.48529e-008 7.70853e-007 -1.98785e-016 0 6.36111e-015 3.97569e-016 -7.95139e-016 1.27222e-014 1.71215e-007 4.43911e-008 1.65133e-006 -3.03156e-007 3.48529e-008 7.70853e-007 3.97569e-016 -7.95139e-016 1.27222e-014 1.71215e-007 4.43911e-008 1.65133e-006 -3.03156e-007 3.48529e-008 7.70853e-007 -1.98785e-016 0 6.36111e-015 3.97569e-016 -7.95139e-016 1.27222e-014 1.71215e-007 4.43911e-008 1.65133e-006 -3.03156e-007 3.48529e-008 7.70853e-007 3.97569e-016 -7.95139e-016 1.27222e-014 1.71215e-007 4.43911e-008 1.65133e-006 -3.03156e-007 3.48529e-008 7.70853e-007 49.7109 -11.0391 -8.27951 43.2404 -40.0807 13.9454 -33.7707 -22.783 18.0929 2.45847 -8.35392 32.0586 -9.93923e-016 -3.18055e-015 -0 2.11591e-007 2.38411e-008 1.4075e-008 5.96354e-016 -4.77083e-015 1.59028e-015 -3.97569e-016 -3.18055e-015 1.59028e-015 -7.95139e-016 -3.18055e-015 4.77083e-015 2.11591e-007 2.38411e-008 1.4075e-008 7.95139e-016 -4.77083e-015 -0 -7.95139e-016 -3.18055e-015 4.77083e-015 2.11591e-007 2.38411e-008 1.4075e-008 7.95139e-016 -4.77083e-015 -0 -3.97569e-016 -3.18055e-015 1.59028e-015 -7.95139e-016 -3.18055e-015 4.77083e-015 2.11591e-007 2.38411e-008 1.4075e-008 7.95139e-016 -4.77083e-015 -0 -7.95139e-016 -3.18055e-015 4.77083e-015 2.11591e-007 2.38411e-008 1.4075e-008 7.95139e-016 -4.77083e-015 -0 3.12766 10.6727 46.291 -4.85564 -1.78202 21.6658 10.9614 46.8555 -8.22382 -5.18226 5.91067 -44.3566 6.57291 9.55232 -22.8946 -10.2433 51.2892 1.60014 
42.1611 -2.00222 71.4362 0 78.3326 -0 -0.341763 1.19927 -0.208692 -0.679376 2.39973 -0.410359 -0.679376 2.39977 -0.410359 -0.0029169 0.773718 -44.0016 -0.606755 -15.7168 -27.2869 -6.90542 2.45606 -5.7941 -31.493 -46.1191 -2.8191 33.9702 -21.5364 -27.6225 0.482812 -29.5427 -30.4233 -3.97569e-016 -1.98785e-016 3.18055e-015 -3.97569e-016 -3.97569e-016 -0 -3.97569e-016 3.97569e-016 6.36111e-015 1.10348e-032 -1.98785e-016 3.18055e-015 8.82781e-032 -7.95139e-016 6.36111e-015 -5.96354e-016 -1.98785e-016 9.54166e-015 -3.97569e-016 0 9.54166e-015 8.82781e-032 -7.95139e-016 6.36111e-015 -5.96354e-016 -1.98785e-016 9.54166e-015 -3.97569e-016 0 9.54166e-015 1.10348e-032 -1.98785e-016 3.18055e-015 8.82781e-032 -7.95139e-016 6.36111e-015 -5.96354e-016 -1.98785e-016 9.54166e-015 -3.97569e-016 0 9.54166e-015 8.82781e-032 -7.95139e-016 6.36111e-015 -5.96354e-016 -1.98785e-016 9.54166e-015 -3.97569e-016 0 9.54166e-015 49.5272 -11.3855 -6.73685 42.1636 -39.933 12.6509 -33.4935 -22.4446 17.9185 2.05936 -9.58819 31.8268 9.93923e-016 0 4.77083e-015 9.93923e-016 0 1.59028e-015 1.98785e-016 0 1.59028e-015 7.95139e-016 1.59028e-015 3.18055e-015 9.93923e-016 3.18055e-015 7.95139e-015 -0 0 1.59028e-015 3.97569e-016 0 1.59028e-015 9.93923e-016 3.18055e-015 7.95139e-015 -0 0 1.59028e-015 3.97569e-016 0 1.59028e-015 7.95139e-016 1.59028e-015 3.18055e-015 9.93923e-016 3.18055e-015 7.95139e-015 -0 0 1.59028e-015 3.97569e-016 0 1.59028e-015 9.93923e-016 3.18055e-015 7.95139e-015 -0 0 1.59028e-015 3.97569e-016 0 1.59028e-015 3.2634 11.0333 46.443 -5.0317 -1.61533 21.6714 11.1966 46.7491 -8.49211 -5.30709 6.45284 -45.4704 6.57114 9.52298 -22.8959 -11.885 51.1668 3.51299 
